<?xml version="1.0" standalone="no"?>
<!DOCTYPE svg PUBLIC "-//W3C//DTD SVG 20010904//EN"
 "http://www.w3.org/TR/2001/REC-SVG-20010904/DTD/svg10.dtd">
<svg version="1.0" xmlns="http://www.w3.org/2000/svg"
 width="256.000000pt" height="256.000000pt" viewBox="0 0 256.000000 256.000000"
 preserveAspectRatio="xMidYMid meet">
<metadata>
Created by potrace 1.16, written by Peter Selinger 2001-2019
</metadata>
<g transform="translate(0.000000,256.000000) scale(0.100000,-0.100000)"
fill="#000000" stroke="none">
<path d="M0 1280 l0 -1280 1280 0 1280 0 0 1280 0 1280 -1280 0 -1280 0 0
-1280z m1750 900 c21 -11 49 -97 91 -280 125 -547 43 -996 -231 -1254 -80 -75
-154 -120 -235 -141 -114 -29 -251 -13 -345 42 -63 37 -149 128 -186 196 l-31
58 -16 -24 c-29 -45 -59 -150 -64 -227 -7 -104 -19 -139 -50 -147 -20 -5 -31
-1 -46 18 -18 22 -19 34 -13 124 8 146 42 257 107 353 l30 45 -12 95 c-34 267
37 509 197 668 86 87 167 129 334 173 202 54 297 117 397 264 34 49 42 53 73
37z"/>
<path d="M1642 1903 c-78 -78 -186 -133 -332 -169 -144 -36 -232 -80 -302
-150 -108 -108 -162 -263 -156 -446 2 -53 6 -99 9 -102 8 -8 162 49 229 85 73
39 148 102 200 167 23 28 50 52 59 52 28 0 51 -33 51 -74 0 -105 -218 -287
-420 -351 -30 -10 -59 -21 -63 -25 -13 -12 30 -88 80 -141 25 -27 71 -61 102
-76 49 -25 68 -28 151 -28 86 0 101 3 163 32 121 58 210 151 284 297 103 204
120 517 47 854 -13 63 -27 119 -32 126 -5 8 -28 -9 -70 -51z"/>
</g>
</svg>
