<?xml version="1.0" standalone="no"?>
<!DOCTYPE svg PUBLIC "-//W3C//DTD SVG 20010904//EN"
 "http://www.w3.org/TR/2001/REC-SVG-20010904/DTD/svg10.dtd">
<svg version="1.0" xmlns="http://www.w3.org/2000/svg"
 width="256.000000pt" height="256.000000pt" viewBox="0 0 256.000000 256.000000"
 preserveAspectRatio="xMidYMid meet">
<metadata>
Created by potrace 1.16, written by Peter Selinger 2001-2019
</metadata>
<g transform="translate(0.000000,256.000000) scale(0.100000,-0.100000)"
fill="#000000" stroke="none">
<path d="M1689 2153 c-8 -10 -28 -37 -44 -61 -73 -109 -188 -179 -375 -226
-58 -14 -136 -41 -175 -60 -162 -76 -286 -249 -330 -457 -18 -83 -20 -263 -4
-341 11 -53 10 -55 -24 -109 -19 -30 -43 -73 -52 -95 -50 -119 -74 -344 -39
-378 44 -44 84 10 84 114 0 62 25 161 55 220 14 28 27 50 30 50 2 0 18 -27 36
-61 41 -77 132 -167 203 -202 81 -40 179 -54 268 -39 261 45 467 292 544 654
22 102 25 401 6 523 -27 166 -88 421 -113 467 -12 23 -52 23 -70 1z m49 -298
c36 -159 46 -246 46 -425 1 -192 -12 -274 -64 -401 -41 -101 -75 -153 -152
-235 -119 -125 -251 -173 -394 -144 -99 20 -169 72 -235 175 -45 69 -43 72 45
101 163 53 310 158 390 278 30 44 33 72 10 104 -24 35 -57 28 -89 -18 -63 -91
-178 -171 -325 -225 -56 -20 -105 -34 -108 -30 -4 4 -8 55 -10 113 -6 169 32
289 126 408 73 92 130 121 397 199 111 33 203 86 275 159 36 38 56 52 61 43 4
-6 16 -52 27 -102z"/>
</g>
</svg>
